<mxfile host="app.diagrams.net" modified="2023-05-29T00:24:45.230Z" agent="Mozilla/5.0 (Windows NT 10.0; Win64; x64) AppleWebKit/537.36 (KHTML, like Gecko) Chrome/113.0.0.0 Safari/537.36" version="21.3.4" etag="ja2IeLNONBy73HhNmRRi" type="github">
  <diagram name="Page-1" id="yMR-ZxpXEJhiYe6jA9RY">
    <mxGraphModel>
      <root>
        <mxCell id="0" />
        <mxCell id="1" parent="0" />
      </root>
    </mxGraphModel>
  </diagram>
</mxfile>
